<svg xmlns="http://www.w3.org/2000/svg" width="38" height="38" fill="none" viewBox="0 0 38 38">
  <path fill="#fff" d="M19 4.75a3.167 3.167 0 0 1 3.167-3.167H33.25a3.167 3.167 0 0 1 3.167 3.167v9.5a3.167 3.167 0 0 1-3.167 3.167H22.167A3.167 3.167 0 0 1 19 14.25v-9.5Zm3.958 1.583a.792.792 0 0 0 0 1.584h9.5a.792.792 0 1 0 0-1.584h-9.5Zm0 4.75a.792.792 0 0 0 0 1.584h9.5a.791.791 0 1 0 0-1.584h-9.5Z"/>
  <path fill="#fff" d="M8.313 4.75h9.104v2.375H8.313a2.77 2.77 0 0 0-2.771 2.77v13.46a2.771 2.771 0 0 0 2.77 2.77h3.562v5.938l7.94-5.938h9.874a2.77 2.77 0 0 0 2.77-2.77V19h.792a4.77 4.77 0 0 0 1.583-.27v4.624a5.146 5.146 0 0 1-5.145 5.146h-9.086l-7.935 5.938a1.979 1.979 0 0 1-3.165-1.584V28.5H8.314a5.144 5.144 0 0 1-5.147-5.146V9.896A5.146 5.146 0 0 1 8.313 4.75Z"/>
</svg>
