<svg xmlns="http://www.w3.org/2000/svg" width="18" height="18" fill="none" viewBox="0 0 18 18">
  <path fill="#fff" d="m17.985.51-.41 2.992c-1.066-.082-1.845.137-2.337.656-.492.52-.793 1.216-.902 2.091-.11.875-.137 1.818-.082 2.83h3.731v8.65h-7.01V7.44c0-2.516.628-4.402 1.885-5.659C14.145.523 15.853.1 17.985.51ZM7.571.51l-.41 2.992c-1.066-.082-1.845.137-2.337.656-.492.52-.793 1.216-.902 2.091-.11.875-.137 1.818-.082 2.83h3.731v8.65H.561V7.44c0-2.516.628-4.402 1.885-5.659C3.731.523 5.44.1 7.571.51Z"/>
</svg>
