<svg xmlns="http://www.w3.org/2000/svg" width="75" height="75" fill="none" viewBox="0 0 75 75">
  <path fill="#A6CFBB" d="M48.413 10.96a5.156 5.156 0 0 0-4.685 5.134V31.25a2.344 2.344 0 0 1-2.344 2.344c-4.509 0-7.678 1.837-10.021 4.65-2.413 2.9-3.985 6.894-4.97 11.115-.977 4.197-1.334 8.425-1.44 11.632a68.396 68.396 0 0 0-.037 3.072h21.937v-2.344a7.031 7.031 0 0 0-7.028-7.032h-3.906a2.343 2.343 0 1 1 0-4.687h3.906a11.716 11.716 0 0 1 11.712 11.719v2.343h2.344a2.343 2.343 0 0 0 2.344-2.343v-31.25a2.344 2.344 0 0 1 2.337-2.344h1.582a3.906 3.906 0 0 0 3.319-5.966l-1.938-3.125a3.907 3.907 0 0 0-3.316-1.846h-7.456a2.344 2.344 0 0 1-2.344-2.344v-3.885h.004ZM20.23 64.061c-.01-.887-.003-1.98.038-3.228.112-3.384.49-7.943 1.562-12.537 1.063-4.569 2.86-9.363 5.935-13.053 2.725-3.272 6.422-5.628 11.28-6.203V16.094a9.844 9.844 0 0 1 9.832-9.844 4.217 4.217 0 0 1 4.219 4.219V12.5h5.112a8.59 8.59 0 0 1 7.297 4.063l1.938 3.125c3.412 5.509-.263 12.562-6.54 13.093V61.72a7.031 7.031 0 0 1-7.023 7.031H18.11a11.865 11.865 0 0 1-8.672-19.969l3.547-3.803a9.56 9.56 0 0 0-.228-13.275L9.278 28.22a2.344 2.344 0 0 1 3.313-3.313l3.48 3.482a14.244 14.244 0 0 1 .345 19.787l-3.55 3.803a7.187 7.187 0 0 0 5.25 12.084h2.115Z"/>
</svg>
