<svg xmlns="http://www.w3.org/2000/svg" width="80" height="80" fill="none" viewBox="0 0 80 80">
  <path fill="#A6CFBB" d="M45 13.333a5 5 0 1 0 0 10 5 5 0 0 0 0-10Zm-1.2 15.9C39.833 29.567 29 38.2 29 38.2c-.667.5-.467.467.067 1.4.533.9.466.967 1.1.533.666-.433 1.766-1.133 3.6-2.266 7.066-4.534 1.133 5.933-1.9 23.566-1.2 8.734 6.666 4.234 8.7 2.9 2-1.3 7.366-5 7.9-5.366.733-.5.2-.9-.367-1.734-.4-.566-.8-.166-.8-.166-2.167 1.433-6.133 4.433-6.667 2.533C40 57.7 44.067 44.667 46.3 35.7c.367-2.133 1.367-6.8-2.5-6.467Z"/>
</svg>
