<svg xmlns="http://www.w3.org/2000/svg" width="75" height="74" fill="none" viewBox="0 0 75 74">
  <path fill="#A6CFBB" d="M63.292 62.987a8.755 8.755 0 0 0 1.456-8.54l-1-2.758h6.033V.685H4.295v51.004h35.217l3.84 10.57a8.725 8.725 0 0 0 2.555 3.677 8.698 8.698 0 0 0 4.04 1.92l1.69 5.634H67.15l-3.86-10.501v-.002Zm-1.928-17.79L59.93 41.29l-2.125-5.867a6.225 6.225 0 0 0-3.518 3.227 6.25 6.25 0 0 0-.207 4.775l2.33 6.371H6.182V2.581h61.71v47.215H63.05l-1.686-4.598v-.001Z"/>
  <path fill="#A6CFBB" d="M25.233 22.539c-1.19.994-2.893 1.492-5.105 1.492H15.89v7.336h-4.228v-20.4h8.742c2.015 0 3.62.527 4.82 1.578 1.198 1.054 1.797 2.682 1.797 4.885 0 2.411-.597 4.112-1.788 5.11v-.001Zm-3.247-7.352c-.538-.452-1.294-.678-2.265-.678H15.89v6.009h3.831c.97 0 1.726-.247 2.265-.735.54-.49.807-1.263.807-2.326.001-1.06-.268-1.816-.806-2.27Zm22.933-.608H34.15v4.333h9.889v3.542h-9.889V27.7h11.27v3.667H29.992v-20.4H44.92v3.613Zm19.167-3.612v3.613h-6.09v16.787h-4.282V14.58h-6.119v-3.613h16.49Z"/>
</svg>
