<svg xmlns="http://www.w3.org/2000/svg" width="78" height="78" fill="none" viewBox="0 0 78 78">
  <path fill="#A6CFBB" d="m24.911 33.27 4.982-4.183 4.177 4.98 9.958-8.356 4.18 4.979L33.27 43.225l-8.359-9.958v.003Z"/>
  <path fill="#A6CFBB" fill-rule="evenodd" d="M52.673 15.902a26.003 26.003 0 0 1 2.151 34.337c.052.042.098.087.147.136l13.79 13.79a3.25 3.25 0 0 1-4.596 4.595l-13.79-13.79a3.432 3.432 0 0 1-.136-.146 26.003 26.003 0 0 1-34.337-38.922 26 26 0 0 1 36.77 0Zm-4.596 32.175a19.502 19.502 0 0 0 .113-27.689 19.5 19.5 0 1 0-.113 27.69Z" clip-rule="evenodd"/>
</svg>
